# xmcd
#
# Track frame offsets: 
#        150
#        20389
#        40857
#        81128
#        125128
#        149041
#        176168
#        241112
#        263469
#
# Disc length: 3837 seconds
#
# Revision: 0
# Processed by: cddbd v1.5.1PL2 Copyright (c) Steve Scherf et al.
# Submitted via: ExactAudioCopy v0.90b3
#
DISCID=770efb09
DTITLE=Peewee Bluesgang - Directors cut - Live Vol.2
DYEAR=2002
DGENRE=Freestyle
TTITLE0=Too hot to handle
TTITLE1=Pewwee shuffle
TTITLE2=I don't need no name
TTITLE3=24 houers
TTITLE4=Soft suicide I
TTITLE5=Soft suicide II
TTITLE6=Hey Joe
TTITLE7=Sari's blues
TTITLE8=Make my day
EXTD=
EXTT0=
EXTT1=
EXTT2=
EXTT3=
EXTT4=
EXTT5=
EXTT6=
EXTT7=
EXTT8=
PLAYORDER=
